HIERARCHY
ROOT Hips
{
	OFFSET 49.210400 9.968171 54.482899
	CHANNELS 6 Xposition Yposition Zposition Xrotation Yrotation Zrotation
	JOINT spine
	{
		OFFSET 0.000000 -0.342408 5.954380
		CHANNELS 3 Xrotation Yrotation Zrotation
		JOINT spine1
		{
			OFFSET 0.000000 -0.000002 8.856018
			CHANNELS 3 Xrotation Yrotation Zrotation
			JOINT spine2
			{
				OFFSET 0.000000 -0.000001 8.485672
				CHANNELS 3 Xrotation Yrotation Zrotation
				JOINT Neck
				{
					OFFSET 0.000000 -1.038704 21.786301
					CHANNELS 3 Xrotation Yrotation Zrotation
					JOINT Head
					{
						OFFSET 0.000000 -0.000001 6.582199
						CHANNELS 3 Xrotation Yrotation Zrotation
						End Site
						{
							OFFSET 0.000000 5.254357 15.932602
						}
					}
				}
				JOINT RightShoulder
				{
					OFFSET -3.573071 0.497523 9.163857
					CHANNELS 3 Xrotation Yrotation Zrotation
					JOINT RightArm
					{
						OFFSET 0.000000 -0.000002 12.019203
						CHANNELS 3 Xrotation Yrotation Zrotation
						JOINT RightArmRoll
						{
							OFFSET 0.000000 -0.000001 6.067551
							CHANNELS 3 Xrotation Yrotation Zrotation
							JOINT RightForeArm
							{
								OFFSET 0.000000 -0.000003 17.672600
								CHANNELS 3 Xrotation Yrotation Zrotation
								JOINT RightForeArmRoll
								{
									OFFSET 0.000000 -0.000001 6.808716
									CHANNELS 3 Xrotation Yrotation Zrotation
									JOINT RightHand
									{
										OFFSET 0.000000 -0.000002 13.663605
										CHANNELS 3 Xrotation Yrotation Zrotation
										End Site
										{
											OFFSET 0.000000 0.000000 0.100006
										}
									}
								}
							}
						}
					}
				}
				JOINT LeftShoulder
				{
					OFFSET 3.573071 0.497523 9.163857
					CHANNELS 3 Xrotation Yrotation Zrotation
					JOINT LeftArm
					{
						OFFSET 0.000000 -0.000002 12.019203
						CHANNELS 3 Xrotation Yrotation Zrotation
						JOINT LeftArmRoll
						{
							OFFSET 0.000000 -0.000001 6.067551
							CHANNELS 3 Xrotation Yrotation Zrotation
							JOINT LeftForeArm
							{
								OFFSET 0.000000 -0.000003 17.672600
								CHANNELS 3 Xrotation Yrotation Zrotation
								JOINT LeftForeArmRoll
								{
									OFFSET 0.000000 -0.000001 6.808716
									CHANNELS 3 Xrotation Yrotation Zrotation
									JOINT LeftHand
									{
										OFFSET 0.000000 -0.000002 13.663605
										CHANNELS 3 Xrotation Yrotation Zrotation
										End Site
										{
											OFFSET 0.000000 0.000000 0.100006
										}
									}
								}
							}
						}
					}
				}
			}
		}
	}
	JOINT RightUpLeg
	{
		OFFSET -5.277740 0.811858 -0.967796
		CHANNELS 3 Xrotation Yrotation Zrotation
		JOINT RightUpLegRoll
		{
			OFFSET 0.000000 -0.000003 16.021397
			CHANNELS 3 Xrotation Yrotation Zrotation
			JOINT RightLeg
			{
				OFFSET 0.000000 0.000004 -19.840099
				CHANNELS 3 Xrotation Yrotation Zrotation
				JOINT RightLegRoll
				{
					OFFSET 0.000000 -0.000004 19.905003
					CHANNELS 3 Xrotation Yrotation Zrotation
					JOINT RightFoot
					{
						OFFSET 0.000000 -0.000003 16.567497
						CHANNELS 3 Xrotation Yrotation Zrotation
						JOINT RightToeBase
						{
							OFFSET 0.000000 -0.000002 13.849602
							CHANNELS 3 Xrotation Yrotation Zrotation
							End Site
							{
								OFFSET 0.005871 0.773115 6.707283
							}
						}
					}
				}
			}
		}
	}
	JOINT LeftUpLeg
	{
		OFFSET 5.277740 0.811858 -0.967796
		CHANNELS 3 Xrotation Yrotation Zrotation
		JOINT LeftUpLegRoll
		{
			OFFSET 0.000000 -0.000003 16.021503
			CHANNELS 3 Xrotation Yrotation Zrotation
			JOINT LeftLeg
			{
				OFFSET 0.000000 -0.000003 19.839996
				CHANNELS 3 Xrotation Yrotation Zrotation
				JOINT LeftLegRoll
				{
					OFFSET 0.000000 -0.000004 20.089005
					CHANNELS 3 Xrotation Yrotation Zrotation
					JOINT LeftFoot
					{
						OFFSET 0.000000 -0.000002 16.383499
						CHANNELS 3 Xrotation Yrotation Zrotation
						JOINT LeftToeBase
						{
							OFFSET 0.000000 -0.000003 13.849594
							CHANNELS 3 Xrotation Yrotation Zrotation
							End Site
							{
								OFFSET -0.026310 0.773116 6.707275
							}
						}
					}
				}
			}
		}
	}
}
MOTION
Frames: 10
Frame Time: 0.041667
48.475399 8.503010 56.668900 17.775262 3.799139 4.288606 0.868671 -1.217220 0.155308 5.744832 -2.429352 0.338170 7.390508 -2.425109 0.369950 32.089561 9.863871 -5.396736 8.013587 -11.555751 -3.179398 2.900596 -54.586421 4.109201 -31.946352 -124.529798 -53.644360 0.000001 0.000023 -0.000002 26.559112 3.597018 -3.036531 -0.000002 -0.000020 -2.999987 -5.000163 -7.999908 0.000018 -8.273877 64.000758 10.055575 -59.790629 134.672930 71.583115 0.000000 0.000014 -0.000001 -0.029391 -3.642210 1.990892 0.000004 0.000008 3.011598 -5.000173 7.999921 -0.000005 -98.272133 -181.237704 -0.975500 -179.999991 0.000006 -0.718985 107.353211 1.361491 -2.695764 0.000004 0.000002 1.520770 70.157852 6.996005 1.770131 25.456965 -7.355627 0.000005 -98.250577 182.524457 4.274405 -0.000004 -0.000004 -0.735011 -70.692970 -3.817572 0.267295 0.000002 0.000002 -1.352910 64.955488 -7.257639 -1.529591 25.456952 7.355613 -0.000000 
48.475601 8.514891 56.642899 17.639848 3.804526 4.283230 0.866572 -1.219591 0.155357 5.740648 -2.434086 0.338378 7.386321 -2.429833 0.370124 32.063104 9.888956 -5.383744 8.032950 -11.566020 -3.163787 2.958183 -54.625036 4.172431 -31.955638 -124.430569 -53.623272 0.000001 0.000024 -0.000005 26.794451 3.595671 -3.045376 -0.000002 -0.000020 -2.999993 -5.000163 -7.999907 0.000015 -8.331726 64.076962 10.127341 -59.868719 134.657248 71.627764 0.000000 0.000014 -0.000003 -0.029437 -3.642240 1.990900 0.000004 0.000007 3.011599 -5.000174 7.999919 -0.000006 -98.181176 -181.237253 -0.958381 -179.999991 0.000006 -0.720993 107.341498 1.358498 -2.696178 0.000003 0.000002 1.520709 70.153597 6.995995 1.770298 25.456965 -7.355626 0.000005 -98.168219 182.493229 4.268357 -0.000004 -0.000004 -0.737066 -70.714601 -3.812752 0.270133 0.000002 0.000002 -1.354490 64.956520 -7.257996 -1.529402 25.456950 7.355612 -0.000001 
48.500999 8.548851 56.611301 17.506736 3.809961 4.279985 0.864290 -1.221681 0.155397 5.736100 -2.438274 0.338521 7.381780 -2.434033 0.370226 32.033659 9.904510 -5.370512 8.052925 -11.569031 -3.149788 3.010249 -54.669582 4.228212 -31.976709 -124.334742 -53.608563 0.000002 0.000024 -0.000004 27.011851 3.594391 -3.053610 -0.000003 -0.000019 -2.999989 -5.000162 -7.999909 0.000017 -8.383397 64.143229 10.191270 -59.934678 134.645008 71.666730 0.000000 0.000014 -0.000003 -0.029483 -3.642271 1.990895 0.000003 0.000008 3.011601 -5.000173 7.999921 -0.000007 -98.093278 -181.233879 -0.942854 -179.999991 0.000005 -0.722988 107.329012 1.355159 -2.697511 0.000003 0.000002 1.520650 70.149676 6.996021 1.770550 25.456969 -7.355628 0.000006 -98.088647 182.465239 4.261677 -0.000004 -0.000004 -0.739086 -70.736233 -3.807934 0.272575 0.000003 0.000003 -1.356010 64.957148 -7.258330 -1.529336 25.456952 7.355613 -0.000000 
48.483601 8.574060 56.588501 17.376333 3.815465 4.279323 0.861803 -1.223462 0.155428 5.731131 -2.441838 0.338586 7.376799 -2.437591 0.370240 32.000628 9.908696 -5.357030 8.073758 -11.563696 -3.137671 3.055897 -54.721071 4.275289 -32.012984 -124.243245 -53.601996 0.000002 0.000024 -0.000001 27.204987 3.593240 -3.060980 -0.000003 -0.000020 -2.999991 -5.000166 -7.999908 0.000016 -8.427525 64.197262 10.245710 -59.987093 134.636211 71.700478 -0.000000 0.000014 -0.000001 -0.029529 -3.642301 1.990896 0.000004 0.000007 3.011602 -5.000174 7.999920 -0.000002 -98.008939 -181.227008 -0.929594 -179.999991 0.000005 -0.724996 107.315652 1.351452 -2.697781 0.000003 0.000002 1.520582 70.146159 6.996024 1.770771 25.456964 -7.355626 0.000005 -98.012279 182.441156 4.254514 -0.000005 -0.000004 -0.741070 -70.757782 -3.803266 0.274544 0.000002 0.000002 -1.357450 64.957134 -7.258695 -1.529117 25.456950 7.355613 0.000000 
48.448601 8.595791 56.566803 17.249038 3.821043 4.281694 0.859071 -1.224872 0.155449 5.725681 -2.444677 0.338564 7.371345 -2.440428 0.370153 31.963305 9.899691 -5.343276 8.095642 -11.548521 -3.127783 3.094282 -54.780931 4.312481 -32.068179 -124.156119 -53.606180 0.000001 0.000023 -0.000001 27.367964 3.592236 -3.067238 -0.000003 -0.000020 -2.999991 -5.000162 -7.999909 0.000018 -8.462857 64.236891 10.289036 -60.021981 134.632427 71.726132 -0.000000 0.000014 -0.000002 -0.029575 -3.642330 1.990901 0.000004 0.000007 3.011600 -5.000173 7.999921 -0.000003 -97.928466 -181.215997 -0.917957 -179.999991 0.000005 -0.726990 107.301261 1.346770 -2.699900 0.000004 0.000002 1.520521 70.143188 6.996037 1.771162 25.456962 -7.355626 0.000005 -97.939544 182.421662 4.246020 -0.000004 -0.000004 -0.743017 -70.779263 -3.798715 0.276040 0.000002 0.000002 -1.358790 64.956499 -7.259050 -1.528938 25.456952 7.355613 -0.000000 
48.451099 8.623821 56.541504 17.125154 3.826728 4.287539 0.856071 -1.225874 0.155457 5.719673 -2.446693 0.338441 7.365339 -2.442454 0.369954 31.921070 9.875565 -5.329195 8.118810 -11.522311 -3.120414 3.124558 -54.850292 4.338596 -32.144441 -124.076165 -53.621329 0.000001 0.000024 -0.000003 27.494551 3.591424 -3.072155 -0.000002 -0.000019 -2.999988 -5.000161 -7.999909 0.000015 -8.488070 64.259793 10.319605 -60.038633 134.632987 71.745284 -0.000000 0.000014 -0.000003 -0.029621 -3.642361 1.990897 0.000003 0.000007 3.011600 -5.000173 7.999917 -0.000002 -97.852343 -181.200247 -0.907215 -179.999991 0.000005 -0.728985 107.285709 1.341415 -2.700908 0.000004 0.000002 1.520450 70.140852 6.996027 1.771608 25.456964 -7.355627 0.000005 -97.870662 182.407401 4.236570 -0.000004 -0.000004 -0.744925 -70.800675 -3.794416 0.276882 0.000001 0.000002 -1.360000 64.955024 -7.259356 -1.528905 25.456950 7.355612 -0.000001 
48.459099 8.649841 56.513302 17.005079 3.832531 4.297314 0.852758 -1.226424 0.155455 5.713052 -2.447816 0.338208 7.358718 -2.443582 0.369628 31.873365 9.834634 -5.314905 8.143477 -11.483874 -3.115876 3.145795 -54.930383 4.352357 -32.246611 -124.002658 -53.651122 0.000002 0.000023 -0.000002 27.578743 3.590845 -3.075483 -0.000003 -0.000019 -2.999991 -5.000163 -7.999908 0.000020 -8.501879 64.263713 10.335803 -60.032192 134.640008 71.753719 -0.000000 0.000014 -0.000002 -0.029667 -3.642390 1.990895 0.000004 0.000007 3.011599 -5.000173 7.999920 -0.000006 -97.781077 -181.179196 -0.899448 -179.999991 0.000005 -0.730993 107.268934 1.335079 -2.702736 0.000004 0.000002 1.520381 70.139158 6.996060 1.772022 25.456962 -7.355626 0.000005 -97.806233 182.399109 4.227394 -0.000005 -0.000004 -0.746793 -70.821760 -3.790452 0.276793 0.000002 0.000002 -1.361070 64.952702 -7.259659 -1.528728 25.456952 7.355612 0.000000 
48.455502 8.678810 56.476295 16.889420 3.838578 4.310798 0.848976 -1.226636 0.155451 5.705473 -2.448256 0.337862 7.351146 -2.444030 0.369174 31.820451 9.778046 -5.300504 8.170023 -11.433101 -3.114097 3.158011 -55.020118 4.353829 -32.371593 -123.936883 -53.693258 0.000001 0.000024 -0.000001 27.623042 3.590464 -3.077332 -0.000003 -0.000018 -2.999988 -5.000163 -7.999908 0.000016 -8.505127 64.251938 10.338836 -60.006975 134.652166 71.753938 -0.000000 0.000014 0.000000 -0.029713 -3.642420 1.990894 0.000003 0.000007 3.011601 -5.000173 7.999920 -0.000007 -97.715425 -181.152955 -0.893745 -179.999991 0.000004 -0.731990 107.250629 1.327743 -2.704410 0.000003 0.000002 1.520299 70.138304 6.996046 1.772469 25.456965 -7.355628 0.000005 -97.746899 182.396295 4.217524 -0.000004 -0.000004 -0.748598 -70.843043 -3.786551 0.276209 0.000003 0.000002 -1.362020 64.949348 -7.260012 -1.528529 25.456953 7.355612 -0.000000 
48.428001 8.701560 56.454800 16.777878 3.844914 4.327371 0.844619 -1.226657 0.155458 5.696748 -2.448313 0.337420 7.342429 -2.444087 0.368607 31.763395 9.708756 -5.286134 8.198457 -11.371489 -3.114671 3.162189 -55.117458 4.344401 -32.515761 -123.875753 -53.746724 0.000000 0.000024 -0.000004 27.636267 3.590224 -3.078044 -0.000000 -0.000020 -2.999992 -5.000165 -7.999908 0.000019 -8.499740 64.229296 10.331239 -59.969915 134.667917 71.749737 -0.000000 0.000014 -0.000002 -0.029760 -3.642451 1.990899 0.000004 0.000007 3.011600 -5.000173 7.999919 -0.000005 -97.655238 -181.122301 -0.889897 -179.999991 0.000005 -0.732987 107.230965 1.319722 -2.706964 0.000003 0.000002 1.520230 70.137874 6.996039 1.773095 25.456969 -7.355627 0.000006 -97.693084 182.397921 4.206356 -0.000005 -0.000004 -0.750329 -70.864729 -3.782541 0.274996 0.000002 0.000002 -1.362900 64.945352 -7.260311 -1.528263 25.456952 7.355612 0.000000 
48.424301 8.727759 56.430801 16.670147 3.851440 4.346765 0.839788 -1.226458 0.155469 5.687078 -2.447937 0.336891 7.332749 -2.443725 0.367937 31.702620 9.627636 -5.271849 8.228458 -11.299929 -3.117446 3.158904 -55.221793 4.324864 -32.676270 -123.820620 -53.809241 0.000000 0.000024 -0.000006 27.621932 3.590108 -3.077732 -0.000002 -0.000021 -2.999993 -5.000166 -7.999908 0.000022 -8.486292 64.196156 10.313734 -59.920826 134.687109 71.740619 -0.000000 0.000014 -0.000002 -0.029806 -3.642492 1.990897 0.000003 0.000008 3.011599 -5.000172 7.999921 -0.000006 -97.600104 -181.087644 -0.888485 -179.999991 0.000005 -0.733985 107.209941 1.311021 -2.709402 0.000003 0.000002 1.520150 70.137894 6.996074 1.773701 25.456964 -7.355626 0.000005 -97.644132 182.403631 4.194004 -0.000005 -0.000004 -0.751994 -70.886688 -3.778407 0.273553 0.000003 0.000002 -1.363710 64.940633 -7.260623 -1.528047 25.456952 7.355612 0.000000 
